{"title":"The Coroner S01E02 - How to Catch a Lobster x264 RB58.mp4","uid":12781777,"size":510022090,"categoryP":"video","categoryS":"tv_shows","magnet":"?xt=urn:btih:092b8c0a6c80fd30c8378b62a9d602ab88845dfc&amp;dn=The+Coroner+S01E02+-+How+to+Catch+a+Lobster+x264+RB58.mp4&amp;tr=udp%3A%2F%2Ftracker.leechers-paradise.org%3A6969&amp;tr=udp%3A%2F%2Fzer0day.ch%3A1337&amp;tr=udp%3A%2F%2Fopen.demonii.com%3A1337&amp;tr=udp%3A%2F%2Ftracker.coppersurfer.tk%3A6969&amp;tr=udp%3A%2F%2Fexodus.desync.com%3A6969","seeders":0,"leechers":1,"uploader":"RedBaron58","files":1,"time":1447795973,"description":"The Coroner (2015) S01E02 - How to Catch a Lobster x264 mp4\r\n \nhttp://www.imdb.com/title/tt5194866/\r\n\r\nNo Trailer at Present\r\n\r\n\r\nPlease be patient My intial upload speed is limited.\r\nThank you for your kind comments and feedback on my other torrents, your feedback is welcome.\r\n\r\n\r\nAbout the Episode:\r\nCrime drama following high-flying solicitor Jane Kennedy as she takes over the job of coroner in \r\nthe English coastal town she escaped from as a teenager. \r\nWhen a body washes up on shore, Jane is convinced it is a botched sea burial, but Davey believes otherwise. \r\nWith a meal at stake, both are determined to prove each other wrong. \r\n \r\nStarring Claire Goose and Matt Bardock\r\n\r\n\r\nI hope you enjoy.\r\n\r\n\r\nTechnical:\r\n\r\nGeneral\r\nComplete name                            : H:The Coroner S01E02 - How to Catch a Lobster x264 RB58.mp4\r\nFormat                                   : MPEG-4\r\nFormat profile                           : Base Media\r\nCodec ID                                 : isom\r\nFile size                                : 486 MiB\r\nDuration                                 : 44mn 39s\r\nOverall bit rate                         : 1 523 Kbps\r\nWriting application                      : Lavf54.63.104\r\n\r\nVideo\r\nID                                       : 1\r\nFormat                                   : AVC\r\nFormat/Info                              : Advanced Video Codec\r\nFormat profile                           :   \r\nFormat settings, CABAC                   : Yes\r\nFormat settings, ReFrames                : 4 frames\r\nCodec ID                                 : avc1\r\nCodec ID/Info                            : Advanced Video Coding\r\nDuration                                 : 44mn 39s\r\nBit rate                                 : 1 400 Kbps\r\nWidth                                    : 832 pixels\r\nHeight                                   : 468 pixels\r\nDisplay aspect ratio                     : 16:9\r\nFrame rate mode                          : Constant\r\nFrame rate                               : 25.000 fps\r\nColor space                              : YUV\r\nChroma subsampling                       : 4:2:0\r\nBit depth                                : 8 bits\r\nScan type                                : Progressive\r\nBits/(Pixel*Frame)                       : 0.144\r\nStream size                              : 447 MiB (92%)\r\nWriting library                          : x264 core 123 r2189 35cf912\r\nEncoding settings                        : cabac=1 / ref=3 / deblock=1:0:0\r\n\r\nAudio\r\nID                                       : 2\r\nFormat                                   : AAC\r\nFormat/Info                              : Advanced Audio Codec\r\nFormat profile                           : LC\r\nCodec ID                                 : 40\r\nDuration                                 : 44mn 39s\r\nBit rate mode                            : Constant\r\nBit rate                                 : 114 Kbps\r\nChannel(s)                               : 2 channels\r\nChannel positions                        : Front: L R\r\nSampling rate                            : 48.0 KHz\r\nCompression mode                         : Lossy\r\nStream size                              : 36.5 MiB (8%)","torrent":{"xt":"urn:btih:092b8c0a6c80fd30c8378b62a9d602ab88845dfc","amp;dn":"The+Coroner+S01E02+-+How+to+Catch+a+Lobster+x264+RB58.mp4","amp;tr":["udp%3A%2F%2Ftracker.leechers-paradise.org%3A6969","udp%3A%2F%2Fzer0day.ch%3A1337","udp%3A%2F%2Fopen.demonii.com%3A1337","udp%3A%2F%2Ftracker.coppersurfer.tk%3A6969","udp%3A%2F%2Fexodus.desync.com%3A6969"],"infoHash":"092b8c0a6c80fd30c8378b62a9d602ab88845dfc","infoHashBuffer":{"type":"Buffer","data":[9,43,140,10,108,128,253,48,200,55,139,98,169,214,2,171,136,132,93,252]},"announce":[],"urlList":[]}}